HIERARCHY
ROOT Hips
{
	OFFSET	0	0	0
	CHANNELS 6  Xposition Yposition Zposition Xrotation Yrotation Zrotation
	JOINT Spine
	{
		OFFSET	0	3.83113	0.769104
		CHANNELS 3  Xrotation Yrotation Zrotation
		JOINT Spine1
		{
			OFFSET	0	6.55885	-1.17122
			CHANNELS 3  Xrotation Yrotation Zrotation
			JOINT Spine2
			{
				OFFSET	0	4.97184	0.532907
				CHANNELS 3  Xrotation Yrotation Zrotation
				JOINT Spine3
				{
					OFFSET	0	5.94982	1.76855
					CHANNELS 3  Xrotation Yrotation Zrotation
					JOINT Spine4
					{
						OFFSET	0	8.8076	-0.901843
						CHANNELS 3  Xrotation Yrotation Zrotation
						JOINT Neck
						{
							OFFSET	0	4.20469	-2.94563
							CHANNELS 3  Xrotation Yrotation Zrotation
							JOINT Head
							{
								OFFSET	0	5.04798	-1.51088
								CHANNELS 3  Xrotation Yrotation Zrotation
								End Site
								{
									OFFSET	0	10.5293	-0.509482
								}
							}
						}
					}
					JOINT LeftShoulder
					{
						OFFSET	-2.52984	10.705	-5.04798
						CHANNELS 3  Xrotation Yrotation Zrotation
						JOINT LeftArm
						{
							OFFSET	-5.5644	-1.51088	1.93839
							CHANNELS 3  Xrotation Yrotation Zrotation
							JOINT LeftForeArm
							{
								OFFSET	-18.7429	-0.85546	1.33785
								CHANNELS 3  Xrotation Yrotation Zrotation
								JOINT LeftHand
								{
									OFFSET	-15.2343	-1.05278	1.08741
									CHANNELS 3  Xrotation Yrotation Zrotation
									End Site
									{
										OFFSET	-5.55977	-0.384213	0.396825
									}
								}
							}
						}
					}
					JOINT RightShoulder
					{
						OFFSET	2.52984	10.705	-5.04798
						CHANNELS 3  Xrotation Yrotation Zrotation
						JOINT RightArm
						{
							OFFSET	5.5644	-1.51088	1.93839
							CHANNELS 3  Xrotation Yrotation Zrotation
							JOINT RightForeArm
							{
								OFFSET	18.7429	-0.85546	1.33785
								CHANNELS 3  Xrotation Yrotation Zrotation
								JOINT RightHand
								{
									OFFSET	15.2343	-1.05278	1.08741
									CHANNELS 3  Xrotation Yrotation Zrotation
									End Site
									{
										OFFSET	5.55977	-0.384213	0.396825
									}
								}
							}
						}
					}
				}
			}
		}
	}
	JOINT LeftUpLeg
	{
		OFFSET	-5.23653	-1.91556	-0.384552
		CHANNELS 3  Xrotation Yrotation Zrotation
		JOINT LeftLeg
		{
			OFFSET	-1.23325	-24.165	-0.377751
			CHANNELS 3  Xrotation Yrotation Zrotation
			JOINT LeftFoot
			{
				OFFSET	-1.19817	-22.0862	1.89941
				CHANNELS 3  Xrotation Yrotation Zrotation
				JOINT LeftToeBase
				{
					OFFSET	0	-2.78986	-7.40988
					CHANNELS 3  Xrotation Yrotation Zrotation
					End Site
					{
						OFFSET	0	-1.11595	-4.46378
					}
				}
			}
		}
	}
	JOINT RightUpLeg
	{
		OFFSET	5.23653	-1.91556	-0.384552
		CHANNELS 3  Xrotation Yrotation Zrotation
		JOINT RightLeg
		{
			OFFSET	1.23325	-24.165	-0.377751
			CHANNELS 3  Xrotation Yrotation Zrotation
			JOINT RightFoot
			{
				OFFSET	1.19817	-22.0862	1.89941
				CHANNELS 3  Xrotation Yrotation Zrotation
				JOINT RightToeBase
				{
					OFFSET	0	-2.78986	-7.40988
					CHANNELS 3  Xrotation Yrotation Zrotation
					End Site
					{
						OFFSET	0	-1.11595	-4.46378
					}
				}
			}
		}
	}
}
MOTION
Frames: 6
Frame Time: 0.033333
 27.9522 52.5327 -41.4324 12.9465 61.5864 -18.6871 179.999 179.979 -177.468 178.209 179.958 -175.78 178.42 179.873 -175.78 179.458 179.979 -177.468 177.885 -179.969 -179.157 176.342 167.717 175.302 178.55 153.88 -178.975 174.706 156.857 172.636 39.9293 -21.3549 -2.1298 65.8924 -49.0512 59.2447 -0 2.90062 -22.8539 1.28548 24.2918 -2.78889 21.3449 55.1547 -60.6097 1.53164 56.2962 -1.2993 -0 -39.7921 -25.7999 34.2061 -10.3054 45.7731 154.842 164.471 169.776 159.38 179.952 165.634 175.282 180 -180 93.9393 175.056 141.123 83.8212 -165.771 159.012 157.022 -179.957 165.924 170.101 180 -180
 28.1516 52.7297 -39.5646 11.6949 61.7267 -18.5077 0.000228884 -0.0052331 2.50439 178.275 -179.99 -175.826 178.517 -179.969 -175.826 179.571 -179.995 -177.496 177.741 -179.967 -179.166 175.901 167.047 176.894 178.396 154.113 -178.507 175.7 156.841 174.037 37.8192 -22.7111 -2.45604 64.3896 -48.3662 57.1173 -0 2.44263 -23.0751 1.1903 24.9841 -2.58376 21.4962 54.8704 -63.0302 1.25464 59.1705 -1.12176 -0 -39.4055 -25.2258 31.8221 -8.22229 44.9895 157.57 163.935 169.897 157.994 -179.883 165.771 175.211 180 -180 93.79 175.828 140.488 83.0562 -166.647 159.774 157.96 -179.992 165.959 170.052 180 -180
 28.1811 53.1813 -38.0675 11.0138 62.5878 -18.1027 0.000989755 -0.0240425 2.35736 178.363 -179.952 -176.071 178.593 -179.856 -176.071 179.578 -179.976 -177.643 177.888 -179.971 -179.215 176.285 166.336 178.124 178.508 154.018 -178.178 176.958 157.018 175.777 37.0942 -24.063 -2.81273 62.9907 -47.8634 55.4648 -0 1.83267 -23.3599 0.520773 26.196 -1.13094 20.1677 54.5399 -63.748 0.516183 60.6946 -0.247493 -0 -39.0331 -24.4679 29.014 -7.35894 43.8591 160.299 163.681 170.623 157.837 -179.927 166.226 175.143 180 -180 92.6919 177.101 139.118 83.8833 -167.102 160.631 161.585 179.972 165.899 170.022 180 -180
 28.2588 53.9697 -36.3668 8.97597 63.9325 -18.3366 0.00122546 -0.0282883 2.48052 178.421 -179.944 -175.866 178.654 -179.831 -175.866 179.619 -179.972 -177.519 177.904 -179.97 -179.174 176.293 165.624 179.434 178.504 153.954 -177.802 178.295 157.238 177.626 36.0102 -24.6998 -1.8753 61.1704 -47.2923 53.2359 -0 0.852178 -23.9365 179.979 152.313 -179.955 18.6743 53.8353 -63.3205 179.635 118.109 -179.561 -0 -38.3326 -23.6626 26.2976 -7.09249 42.6126 162.424 163.826 171.665 158.553 -179.983 166.976 175.077 180 -180 91.4685 178.401 137.61 85.9697 -166.598 161.615 167.177 179.843 166.11 170.007 180 -180
 28.5486 55.3653 -34.9703 8.56604 64.6518 -19.8299 0.000542235 -0.0113251 2.74118 178.272 -179.977 -175.431 178.627 -179.932 -175.431 179.901 -179.989 -177.259 176.965 -179.952 -179.088 173.65 165.007 -178.424 177.659 154.133 -177.035 0.0934058 22.6163 0.130329 35.6659 -25.329 -0.154807 60.6593 -47.4887 52.6309 -0 -0.454687 -24.4068 179.241 152 -178.352 16.6921 52.4599 -61.4856 178.373 116.887 -178.464 -0 -37.8114 -22.6429 25.6243 -5.4232 41.5512 165.982 163.497 171.785 158.596 179.938 167.472 175.013 180 -180 89.781 179.72 135.405 88.3027 -165.945 162.775 1.06138 0.255088 -13.7192 170.012 180 -180
 28.8521 56.0853 -33.3732 7.36581 66.0009 -20.8461 5.44039e-05 -0.00103084 3.02105 178.233 -179.998 -174.965 178.665 -179.994 -174.965 0.118492 -0.00103084 3.02105 176.386 -179.937 -178.995 171.941 164.134 -176.052 177.117 153.985 -176.256 1.36584 22.8041 1.8993 35.8319 -25.6861 1.03414 59.4522 -47.3779 51.2567 -0 -1.72877 -25.0678 178.99 152.593 -177.806 15.8648 51.2566 -60.593 177.331 114.37 -177.642 -0 -37.1025 -21.758 23.7014 -4.95915 41.7091 166.527 162.564 170.687 158.272 -179.991 167.835 174.957 180 -180 89.79 179.899 135.007 86.5399 -165.758 163.851 11.6471 0.0162522 -13.5063 170.013 180 -180
